<mxfile host="app.diagrams.net" modified="2022-01-19T11:59:50.844Z" agent="5.0 (Macintosh; Intel Mac OS X 10_15_7) AppleWebKit/537.36 (KHTML, like Gecko) Chrome/97.0.4692.71 Safari/537.36" etag="8qBw33xoWQ9PIzEuhzaZ" version="16.1.4" type="github">
  <diagram name="Page-1" id="ad52d381-51e7-2e0d-a935-2d0ddd2fd229">
    <mxGraphModel dx="1111" dy="615" grid="1" gridSize="10" guides="1" tooltips="1" connect="1" arrows="1" fold="1" page="1" pageScale="1" pageWidth="1100" pageHeight="850" background="none" math="0" shadow="0">
      <root>
        <mxCell id="0" />
        <mxCell id="1" parent="0" />
        <mxCell id="sSV7MeNkoQVSfcenWd8R-6" style="edgeStyle=none;rounded=0;orthogonalLoop=1;jettySize=auto;html=1;exitX=0;exitY=0;exitDx=0;exitDy=0;entryX=1;entryY=0.5;entryDx=0;entryDy=0;" edge="1" parent="1" source="sSV7MeNkoQVSfcenWd8R-1" target="sSV7MeNkoQVSfcenWd8R-2">
          <mxGeometry relative="1" as="geometry" />
        </mxCell>
        <mxCell id="sSV7MeNkoQVSfcenWd8R-7" value="organiserer + arrangerer" style="edgeLabel;html=1;align=center;verticalAlign=middle;resizable=0;points=[];" vertex="1" connectable="0" parent="sSV7MeNkoQVSfcenWd8R-6">
          <mxGeometry x="0.1688" y="1" relative="1" as="geometry">
            <mxPoint as="offset" />
          </mxGeometry>
        </mxCell>
        <mxCell id="sSV7MeNkoQVSfcenWd8R-9" style="edgeStyle=none;rounded=0;orthogonalLoop=1;jettySize=auto;html=1;exitX=0;exitY=1;exitDx=0;exitDy=0;" edge="1" parent="1" source="sSV7MeNkoQVSfcenWd8R-1" target="sSV7MeNkoQVSfcenWd8R-8">
          <mxGeometry relative="1" as="geometry" />
        </mxCell>
        <mxCell id="sSV7MeNkoQVSfcenWd8R-10" value="driver" style="edgeLabel;html=1;align=center;verticalAlign=middle;resizable=0;points=[];" vertex="1" connectable="0" parent="sSV7MeNkoQVSfcenWd8R-9">
          <mxGeometry x="0.0484" relative="1" as="geometry">
            <mxPoint as="offset" />
          </mxGeometry>
        </mxCell>
        <mxCell id="sSV7MeNkoQVSfcenWd8R-1" value="DigiForsk" style="ellipse;whiteSpace=wrap;html=1;aspect=fixed;" vertex="1" parent="1">
          <mxGeometry x="610" y="120" width="80" height="80" as="geometry" />
        </mxCell>
        <mxCell id="sSV7MeNkoQVSfcenWd8R-23" style="edgeStyle=none;shape=link;rounded=0;orthogonalLoop=1;jettySize=auto;html=1;exitX=0;exitY=0.5;exitDx=0;exitDy=0;entryX=1;entryY=0.75;entryDx=0;entryDy=0;" edge="1" parent="1" source="sSV7MeNkoQVSfcenWd8R-2" target="sSV7MeNkoQVSfcenWd8R-22">
          <mxGeometry relative="1" as="geometry" />
        </mxCell>
        <mxCell id="sSV7MeNkoQVSfcenWd8R-2" value="DHForum" style="ellipse;whiteSpace=wrap;html=1;aspect=fixed;" vertex="1" parent="1">
          <mxGeometry x="300" y="140" width="80" height="80" as="geometry" />
        </mxCell>
        <mxCell id="sSV7MeNkoQVSfcenWd8R-12" style="edgeStyle=none;rounded=0;orthogonalLoop=1;jettySize=auto;html=1;exitX=0.5;exitY=1;exitDx=0;exitDy=0;entryX=0.5;entryY=0;entryDx=0;entryDy=0;shape=link;" edge="1" parent="1" source="sSV7MeNkoQVSfcenWd8R-8" target="sSV7MeNkoQVSfcenWd8R-11">
          <mxGeometry relative="1" as="geometry" />
        </mxCell>
        <mxCell id="sSV7MeNkoQVSfcenWd8R-14" style="edgeStyle=none;shape=link;rounded=0;orthogonalLoop=1;jettySize=auto;html=1;exitX=0;exitY=1;exitDx=0;exitDy=0;entryX=1;entryY=0.5;entryDx=0;entryDy=0;" edge="1" parent="1" source="sSV7MeNkoQVSfcenWd8R-8" target="sSV7MeNkoQVSfcenWd8R-13">
          <mxGeometry relative="1" as="geometry" />
        </mxCell>
        <mxCell id="sSV7MeNkoQVSfcenWd8R-15" style="edgeStyle=none;rounded=0;orthogonalLoop=1;jettySize=auto;html=1;exitX=1;exitY=0;exitDx=0;exitDy=0;" edge="1" parent="1" source="sSV7MeNkoQVSfcenWd8R-8" target="sSV7MeNkoQVSfcenWd8R-2">
          <mxGeometry relative="1" as="geometry" />
        </mxCell>
        <mxCell id="sSV7MeNkoQVSfcenWd8R-16" value="møtes + samles" style="edgeLabel;html=1;align=center;verticalAlign=middle;resizable=0;points=[];" vertex="1" connectable="0" parent="sSV7MeNkoQVSfcenWd8R-15">
          <mxGeometry x="-0.1414" relative="1" as="geometry">
            <mxPoint as="offset" />
          </mxGeometry>
        </mxCell>
        <mxCell id="sSV7MeNkoQVSfcenWd8R-24" value="skal få" style="edgeStyle=none;shape=link;rounded=0;orthogonalLoop=1;jettySize=auto;html=1;exitX=0;exitY=0;exitDx=0;exitDy=0;entryX=0.5;entryY=1;entryDx=0;entryDy=0;" edge="1" parent="1" source="sSV7MeNkoQVSfcenWd8R-8" target="sSV7MeNkoQVSfcenWd8R-22">
          <mxGeometry relative="1" as="geometry" />
        </mxCell>
        <mxCell id="sSV7MeNkoQVSfcenWd8R-8" value="#DHOslo nettverk" style="ellipse;whiteSpace=wrap;html=1;aspect=fixed;" vertex="1" parent="1">
          <mxGeometry x="110" y="250" width="80" height="80" as="geometry" />
        </mxCell>
        <mxCell id="sSV7MeNkoQVSfcenWd8R-11" value="epostliste" style="rounded=1;whiteSpace=wrap;html=1;" vertex="1" parent="1">
          <mxGeometry x="100" y="390" width="70" height="20" as="geometry" />
        </mxCell>
        <mxCell id="sSV7MeNkoQVSfcenWd8R-13" value="nettsider (hos ILN)" style="rounded=1;whiteSpace=wrap;html=1;" vertex="1" parent="1">
          <mxGeometry y="320" width="70" height="30" as="geometry" />
        </mxCell>
        <mxCell id="sSV7MeNkoQVSfcenWd8R-18" value="holdes på" style="edgeStyle=none;shape=link;rounded=0;orthogonalLoop=1;jettySize=auto;html=1;exitX=1;exitY=1;exitDx=0;exitDy=0;entryX=0;entryY=0;entryDx=0;entryDy=0;" edge="1" parent="1" source="sSV7MeNkoQVSfcenWd8R-17" target="sSV7MeNkoQVSfcenWd8R-2">
          <mxGeometry relative="1" as="geometry" />
        </mxCell>
        <mxCell id="sSV7MeNkoQVSfcenWd8R-17" value="scene HumSam" style="rounded=1;whiteSpace=wrap;html=1;" vertex="1" parent="1">
          <mxGeometry x="160" y="70" width="100" height="20" as="geometry" />
        </mxCell>
        <mxCell id="sSV7MeNkoQVSfcenWd8R-20" style="edgeStyle=none;shape=link;rounded=0;orthogonalLoop=1;jettySize=auto;html=1;exitX=1;exitY=0.5;exitDx=0;exitDy=0;entryX=0.021;entryY=0.313;entryDx=0;entryDy=0;entryPerimeter=0;" edge="1" parent="1" source="sSV7MeNkoQVSfcenWd8R-19" target="sSV7MeNkoQVSfcenWd8R-2">
          <mxGeometry relative="1" as="geometry" />
        </mxCell>
        <mxCell id="sSV7MeNkoQVSfcenWd8R-21" value="annonseres via" style="edgeLabel;html=1;align=center;verticalAlign=middle;resizable=0;points=[];" vertex="1" connectable="0" parent="sSV7MeNkoQVSfcenWd8R-20">
          <mxGeometry x="-0.2548" y="1" relative="1" as="geometry">
            <mxPoint as="offset" />
          </mxGeometry>
        </mxCell>
        <mxCell id="sSV7MeNkoQVSfcenWd8R-19" value="sosiale medier (Twitter, Facebook)" style="rounded=1;whiteSpace=wrap;html=1;" vertex="1" parent="1">
          <mxGeometry x="50" y="130" width="120" height="30" as="geometry" />
        </mxCell>
        <mxCell id="sSV7MeNkoQVSfcenWd8R-22" value="fysisk sted i biblioteket" style="rounded=1;whiteSpace=wrap;html=1;" vertex="1" parent="1">
          <mxGeometry x="100" y="180" width="70" height="30" as="geometry" />
        </mxCell>
        <mxCell id="sSV7MeNkoQVSfcenWd8R-28" value="knyttet til" style="edgeStyle=none;shape=link;rounded=0;orthogonalLoop=1;jettySize=auto;html=1;exitX=0;exitY=0.3333333333333333;exitDx=0;exitDy=0;exitPerimeter=0;entryX=0.988;entryY=0.729;entryDx=0;entryDy=0;entryPerimeter=0;" edge="1" parent="1" source="sSV7MeNkoQVSfcenWd8R-25" target="sSV7MeNkoQVSfcenWd8R-8">
          <mxGeometry relative="1" as="geometry" />
        </mxCell>
        <mxCell id="sSV7MeNkoQVSfcenWd8R-29" value="presenterer + deltar i" style="edgeStyle=none;shape=link;rounded=0;orthogonalLoop=1;jettySize=auto;html=1;exitX=0.5;exitY=0;exitDx=0;exitDy=0;exitPerimeter=0;entryX=0.375;entryY=1;entryDx=0;entryDy=0;entryPerimeter=0;" edge="1" parent="1" source="sSV7MeNkoQVSfcenWd8R-25" target="sSV7MeNkoQVSfcenWd8R-2">
          <mxGeometry relative="1" as="geometry" />
        </mxCell>
        <mxCell id="sSV7MeNkoQVSfcenWd8R-30" value="fagfelle, kollega" style="edgeStyle=none;shape=link;rounded=0;orthogonalLoop=1;jettySize=auto;html=1;exitX=0.5;exitY=0.5;exitDx=0;exitDy=0;exitPerimeter=0;entryX=0.5;entryY=1;entryDx=0;entryDy=0;" edge="1" parent="1" source="sSV7MeNkoQVSfcenWd8R-25" target="sSV7MeNkoQVSfcenWd8R-1">
          <mxGeometry relative="1" as="geometry" />
        </mxCell>
        <mxCell id="sSV7MeNkoQVSfcenWd8R-25" value="Forskere" style="shape=umlActor;verticalLabelPosition=bottom;verticalAlign=top;html=1;outlineConnect=0;" vertex="1" parent="1">
          <mxGeometry x="300" y="320" width="30" height="60" as="geometry" />
        </mxCell>
      </root>
    </mxGraphModel>
  </diagram>
</mxfile>
